<svg width="392" height="32" viewBox="0 0 392 32" fill="none" xmlns="http://www.w3.org/2000/svg">
<rect y="15" width="2" height="2" rx="1" fill="#747474"/>
<rect x="6" y="12" width="2" height="8" rx="1" fill="#747474"/>
<rect x="12" y="9" width="2" height="14" rx="1" fill="#747474"/>
<rect x="18" y="14" width="2" height="4" rx="1" fill="#747474"/>
<rect x="24" y="8" width="2" height="16" rx="1" fill="#747474"/>
<rect x="30" y="9" width="2" height="14" rx="1" fill="#747474"/>
<rect x="36" y="11" width="2" height="10" rx="1" fill="#747474"/>
<rect x="42" y="11" width="2" height="10" rx="1" fill="#747474"/>
<rect x="48" y="11" width="2" height="10" rx="1" fill="#747474"/>
<rect x="54" y="9" width="2" height="14" rx="1" fill="#747474"/>
<rect x="60" y="11" width="2" height="10" rx="1" fill="#747474"/>
<rect x="66" y="8" width="2" height="16" rx="1" fill="#747474"/>
<rect x="72" y="11" width="2" height="10" rx="1" fill="#747474"/>
<rect x="78" y="14" width="2" height="4" rx="1" fill="#747474"/>
<rect x="84" y="15" width="2" height="2" rx="1" fill="#747474"/>
<rect x="72" y="15" width="2" height="2" rx="1" fill="#747474"/>
<rect x="78" y="12" width="2" height="8" rx="1" fill="#747474"/>
<rect x="84" y="9" width="2" height="14" rx="1" fill="#747474"/>
<rect x="90" y="14" width="2" height="4" rx="1" fill="#747474"/>
<rect x="96" y="8" width="2" height="16" rx="1" fill="#747474"/>
<rect x="102" y="9" width="2" height="14" rx="1" fill="#747474"/>
<rect x="108" y="11" width="2" height="10" rx="1" fill="#747474"/>
<rect x="114" y="11" width="2" height="10" rx="1" fill="#747474"/>
<rect x="120" y="11" width="2" height="10" rx="1" fill="#747474"/>
<rect x="126" y="9" width="2" height="14" rx="1" fill="#747474"/>
<rect x="132" y="11" width="2" height="10" rx="1" fill="#747474"/>
<rect x="138" y="8" width="2" height="16" rx="1" fill="#747474"/>
<rect x="144" y="11" width="2" height="10" rx="1" fill="#747474"/>
<rect x="150" y="14" width="2" height="4" rx="1" fill="#747474"/>
<rect x="156" y="15" width="2" height="2" rx="1" fill="#747474"/>
<rect x="138" y="15" width="2" height="2" rx="1" fill="#747474"/>
<rect x="144" y="12" width="2" height="8" rx="1" fill="#747474"/>
<rect x="150" y="9" width="2" height="14" rx="1" fill="#747474"/>
<rect x="156" y="14" width="2" height="4" rx="1" fill="#747474"/>
<rect x="162" y="8" width="2" height="16" rx="1" fill="#747474"/>
<rect x="168" y="9" width="2" height="14" rx="1" fill="#747474"/>
<rect x="174" y="11" width="2" height="10" rx="1" fill="#747474"/>
<rect x="180" y="11" width="2" height="10" rx="1" fill="#747474"/>
<rect x="186" y="11" width="2" height="10" rx="1" fill="#747474"/>
<rect x="192" y="9" width="2" height="14" rx="1" fill="#747474"/>
<rect x="198" y="11" width="2" height="10" rx="1" fill="#747474"/>
<rect x="204" y="8" width="2" height="16" rx="1" fill="#747474"/>
<rect x="210" y="11" width="2" height="10" rx="1" fill="#747474"/>
<rect x="216" y="14" width="2" height="4" rx="1" fill="#747474"/>
<rect x="222" y="15" width="2" height="2" rx="1" fill="#747474"/>
<rect x="210" y="15" width="2" height="2" rx="1" fill="#747474"/>
<rect x="216" y="12" width="2" height="8" rx="1" fill="#747474"/>
<rect x="222" y="9" width="2" height="14" rx="1" fill="#747474"/>
<rect x="228" y="14" width="2" height="4" rx="1" fill="#747474"/>
<rect x="234" y="8" width="2" height="16" rx="1" fill="#747474"/>
<rect x="240" y="9" width="2" height="14" rx="1" fill="#747474"/>
<rect x="246" y="11" width="2" height="10" rx="1" fill="#747474"/>
<rect x="252" y="11" width="2" height="10" rx="1" fill="#747474"/>
<rect x="258" y="11" width="2" height="10" rx="1" fill="#747474"/>
<rect x="264" y="9" width="2" height="14" rx="1" fill="#747474"/>
<rect x="270" y="11" width="2" height="10" rx="1" fill="#747474"/>
<rect x="276" y="8" width="2" height="16" rx="1" fill="#747474"/>
<rect x="282" y="11" width="2" height="10" rx="1" fill="#747474"/>
<rect x="288" y="14" width="2" height="4" rx="1" fill="#747474"/>
<rect x="294" y="15" width="2" height="2" rx="1" fill="#747474"/>
<rect x="234" y="15" width="2" height="2" rx="1" fill="#747474"/>
<rect x="240" y="12" width="2" height="8" rx="1" fill="#747474"/>
<rect x="246" y="9" width="2" height="14" rx="1" fill="#747474"/>
<rect x="252" y="14" width="2" height="4" rx="1" fill="#747474"/>
<rect x="258" y="8" width="2" height="16" rx="1" fill="#747474"/>
<rect x="264" y="9" width="2" height="14" rx="1" fill="#747474"/>
<rect x="270" y="11" width="2" height="10" rx="1" fill="#747474"/>
<rect x="276" y="11" width="2" height="10" rx="1" fill="#747474"/>
<rect x="282" y="11" width="2" height="10" rx="1" fill="#747474"/>
<rect x="288" y="9" width="2" height="14" rx="1" fill="#747474"/>
<rect x="294" y="11" width="2" height="10" rx="1" fill="#747474"/>
<rect x="300" y="8" width="2" height="16" rx="1" fill="#747474"/>
<rect x="306" y="11" width="2" height="10" rx="1" fill="#747474"/>
<rect x="312" y="14" width="2" height="4" rx="1" fill="#747474"/>
<rect x="318" y="15" width="2" height="2" rx="1" fill="#747474"/>
<rect x="306" y="15" width="2" height="2" rx="1" fill="#747474"/>
<rect x="312" y="12" width="2" height="8" rx="1" fill="#747474"/>
<rect x="318" y="9" width="2" height="14" rx="1" fill="#747474"/>
<rect x="324" y="14" width="2" height="4" rx="1" fill="#747474"/>
<rect x="330" y="8" width="2" height="16" rx="1" fill="#747474"/>
<rect x="336" y="9" width="2" height="14" rx="1" fill="#747474"/>
<rect x="342" y="11" width="2" height="10" rx="1" fill="#747474"/>
<rect x="348" y="11" width="2" height="10" rx="1" fill="#747474"/>
<rect x="354" y="11" width="2" height="10" rx="1" fill="#747474"/>
<rect x="360" y="9" width="2" height="14" rx="1" fill="#747474"/>
<rect x="366" y="11" width="2" height="10" rx="1" fill="#747474"/>
<rect x="372" y="8" width="2" height="16" rx="1" fill="#747474"/>
<rect x="378" y="11" width="2" height="10" rx="1" fill="#747474"/>
<rect x="384" y="14" width="2" height="4" rx="1" fill="#747474"/>
<rect x="390" y="15" width="2" height="2" rx="1" fill="#747474"/>
</svg>
