<svg width="50" height="50" viewBox="0 0 50 50" fill="none" xmlns="http://www.w3.org/2000/svg">
<rect width="50" height="50" rx="25" fill="#B1A070"/>
<circle cx="25.0002" cy="25.0002" r="21.6667" fill="#83754E"/>
<path fill-rule="evenodd" clip-rule="evenodd" d="M20 29.8386L21.5958 27.4057C23.0205 28.4266 24.5184 28.9617 25.7473 28.9617C26.8274 28.9617 27.3191 28.5728 27.3191 27.9408C27.3191 27.1376 26.0421 26.87 24.5923 26.4335C22.7503 25.898 20.6628 25.0465 20.6628 22.4686C20.6628 19.8169 22.8242 18.3335 25.4766 18.3335C27.1468 18.3335 28.9642 18.8935 30.3889 19.8413L28.9642 22.3954C27.6625 21.6415 26.3604 21.1796 25.4033 21.1796C24.4944 21.1796 24.0279 21.569 24.0279 22.1279C24.0279 22.858 25.2797 23.1981 26.7049 23.6844C28.5469 24.2932 30.6837 25.169 30.6837 27.6002C30.6837 30.495 28.4977 31.8077 25.6489 31.8077C23.8069 31.8077 21.7435 31.2001 20 29.8386Z" fill="#B1A070"/>
</svg>
