<svg width="42" height="40" viewBox="0 0 42 40" fill="none" xmlns="http://www.w3.org/2000/svg">
<path d="M1.66992 16.6735C1.04342 16.0942 1.38374 15.0468 2.23113 14.9463L14.2383 13.5221C14.5836 13.4812 14.8836 13.2643 15.0293 12.9485L20.0938 1.96892C20.4512 1.19405 21.5527 1.1939 21.9102 1.96877L26.9746 12.9483C27.1203 13.2641 27.4183 13.4815 27.7637 13.5225L39.7715 14.9463C40.6189 15.0468 40.9582 16.0945 40.3317 16.6739L31.4555 24.8838C31.2002 25.1199 31.0865 25.4714 31.1543 25.8125L33.51 37.6719C33.6763 38.5089 32.7856 39.1574 32.041 38.7406L21.4903 32.8332C21.1868 32.6633 20.8181 32.6641 20.5147 32.834L9.96288 38.7391C9.21826 39.1559 8.32588 38.5088 8.49219 37.6719L10.8483 25.8133C10.9161 25.4722 10.8027 25.1199 10.5473 24.8837L1.66992 16.6735Z" fill="#FAFAFA" stroke="#F7F7F7" stroke-width="2" stroke-linecap="round" stroke-linejoin="round"/>
</svg>
