<svg width="44" height="42" viewBox="0 0 44 42" fill="none" xmlns="http://www.w3.org/2000/svg">
<path d="M2.66992 17.6735C2.04342 17.0942 2.38374 16.0468 3.23113 15.9463L15.2383 14.5221C15.5836 14.4812 15.8836 14.2643 16.0293 13.9485L21.0938 2.96892C21.4512 2.19405 22.5527 2.1939 22.9102 2.96877L27.9746 13.9483C28.1203 14.2641 28.4183 14.4815 28.7637 14.5225L40.7715 15.9463C41.6189 16.0468 41.9582 17.0945 41.3317 17.6739L32.4555 25.8838C32.2002 26.1199 32.0865 26.4714 32.1543 26.8125L34.51 38.6719C34.6763 39.5089 33.7856 40.1574 33.041 39.7406L22.4903 33.8332C22.1868 33.6633 21.8181 33.6641 21.5147 33.834L10.9629 39.7391C10.2183 40.1559 9.32588 39.5088 9.49219 38.6719L11.8483 26.8133C11.9161 26.4722 11.8027 26.1199 11.5473 25.8837L2.66992 17.6735Z" fill="#83754E" stroke="#83754E" stroke-width="4" stroke-linecap="round" stroke-linejoin="round"/>
</svg>
